# xmcd
#
# Track frame offsets: 
#        150
#        10327
#        23035
#        33457
#        42297
#        53202
#        64230
#        75510
#        87227
#        99760
#        109290
#        121075
#        130717
#        140347
#        151277
#        161090
#        173787
#        183230
#        192567
#        204410
#        213095
#        224077
#        232500
#        242025
#        253100
#        262870
#        273585
#        286765
#        295507
#
# Disc length: 4108 seconds
#
# Revision: 4
# Processed by: cddbd v1.5.2PL0 Copyright (c) Steve Scherf et al.
# Submitted via: ExactAudioCopyFreeDBPlugin 1.0
#
DISCID=8e100a1d
DTITLE=Various Artist - Shakin' Fit!:  29 Soul Stormin' Stompers
DYEAR=1992
DGENRE=Rhythm and Blues
TTITLE0=The Fabulous Playboys - Nervous
TTITLE1=Harvey Scales and the 7 Sounds - Love-Itis
TTITLE2=The Five Du-Tones - The Chicken Astronaut
TTITLE3=Dorothy Berry - Standin' On The Corner
TTITLE4=Willie Parker - I Live the Life I Love
TTITLE5=The Shells - Whiplash
TTITLE6=The Ideals - Mo Gorilla
TTITLE7=The Gardenias - What's The Matter With Me
TTITLE8=Emanual Laskey - Welfare Cheese
TTITLE9=Junior and The Classics - The Dog
TTITLE10=J.C. Davis - The Chicken Scratch
TTITLE11=The Tabs - The Wallop
TTITLE12=Sir Guy - The Frog
TTITLE13=Jimmy Merchant - Skin the Cat
TTITLE14=The Pyramids - Shakin' Fit
TTITLE15=Don Gardner - My Baby Likes to Boogaloo
TTITLE16=Pancho Villa and The Bandits - Ain't That Bad
TTITLE17=Bobby Davis - Damper Down
TTITLE18=Rex Garvin and The Midnight Cravers - Sock It to 'Em J.B. Part 
TTITLE18=1
TTITLE19=The Four Holidays - Grandma Bird
TTITLE20=Kitty Love - You Gotta Change
TTITLE21=Donald and The Delighters - Wang Dang Dula
TTITLE22=Sonny Raye - Whip It On Me
TTITLE23=Mickey Lee Lane - Hey Sah-Lo-Ney
TTITLE24=David Jones and The Fenders - Boss With the Hot Sauce
TTITLE25=R.T. and The Pot Lickers - Sticky Pig Feet
TTITLE26=Bill Robinson and The Quails - The Cow
TTITLE27=Don and Dewey - Heartattack
TTITLE28=Harvey Scales and The 7 Sounds - Get Down
EXTD=
EXTT0=
EXTT1=
EXTT2=
EXTT3=
EXTT4=
EXTT5=
EXTT6=
EXTT7=
EXTT8=
EXTT9=
EXTT10=
EXTT11=
EXTT12=
EXTT13=
EXTT14=
EXTT15=
EXTT16=
EXTT17=
EXTT18=
EXTT19=
EXTT20=
EXTT21=
EXTT22=
EXTT23=
EXTT24=
EXTT25=
EXTT26=
EXTT27=
EXTT28=
PLAYORDER=
